<svg xmlns="http://www.w3.org/2000/svg" viewBox="0 0 150 150">
  <defs>
    <style>
      .cls-1, .cls-3, .cls-6 {
        fill: none;
      }

      .cls-1, .cls-6 {
        stroke: #000;
      }

      .cls-1 {
        stroke-linejoin: round;
        stroke-width: 6px;
      }

      .cls-2 {
        fill: #e6f9ff;
        stroke: #c0dddd;
        stroke-linejoin: bevel;
      }

      .cls-3 {
        stroke: #525e5e;
        stroke-width: 0.75px;
      }

      .cls-3, .cls-5, .cls-6 {
        stroke-miterlimit: 10;
      }

      .cls-4 {
        fill: #98dddd;
      }

      .cls-5 {
        fill: #fff;
        stroke: #424747;
        stroke-width: 1.94px;
      }

      .cls-6 {
        stroke-width: 1.72px;
      }
    </style>
  </defs>
  <title>TopBar - Ideas</title>
  <g id="icons">
    <g>
      <path class="cls-1" d="M50.5,60.94S62.76,60,62.8,45.37l36.27.11-.17,59.15-48.53-.14Z"/>
      <g>
        <path class="cls-2" d="M50.5,60.94S62.76,60,62.8,45.37l36.27.11-.17,59.15-48.53-.14Z"/>
        <circle class="cls-3" cx="74.35" cy="67.02" r="12.6"/>
        <g>
          <path class="cls-4" d="M61.62,99.87a4.07,4.07,0,0,1-.39,1.86,3.85,3.85,0,0,1-1.07,1.32,5,5,0,0,1-1.75.9,9.16,9.16,0,0,1-2.43.27H50.32l0-14.15h5a19.37,19.37,0,0,1,2.36.11,4.63,4.63,0,0,1,1.51.5,2.67,2.67,0,0,1,1.14,1.09,3.24,3.24,0,0,1,.38,1.58,3.3,3.3,0,0,1-.52,1.84,3,3,0,0,1-1.42,1.19v.08a3.84,3.84,0,0,1,2.1,1.12A3.22,3.22,0,0,1,61.62,99.87Zm-4.56-5.8a1.59,1.59,0,0,0-.18-.71,1.07,1.07,0,0,0-.55-.52,2.27,2.27,0,0,0-.83-.16H53.83v3h.45l1.28,0a2,2,0,0,0,.75-.2,1.16,1.16,0,0,0,.59-.56A1.86,1.86,0,0,0,57.06,94.07Zm.9,5.74a1.77,1.77,0,0,0-.26-1,1.66,1.66,0,0,0-.8-.56,2.85,2.85,0,0,0-.89-.14H53.84v3.55H54c.92,0,1.56,0,1.91,0a2.92,2.92,0,0,0,1.09-.25,1.38,1.38,0,0,0,.7-.62A1.74,1.74,0,0,0,58,99.81Z"/>
          <path class="cls-4" d="M69.39,104.48A6.3,6.3,0,0,1,65,103.11a5.08,5.08,0,0,1-1.54-4l0-9H67l0,8.83a3.6,3.6,0,0,0,.56,2.2,2.12,2.12,0,0,0,1.81.71,2.2,2.2,0,0,0,1.8-.69,3.53,3.53,0,0,0,.57-2.23l0-8.83h3.55l0,9a5.23,5.23,0,0,1-1.48,4A6.23,6.23,0,0,1,69.39,104.48Z"/>
          <path class="cls-4" d="M82.42,104.42a11.59,11.59,0,0,1-2.86-.31,15,15,0,0,1-2.29-.78V100h.33a7.86,7.86,0,0,0,2.35,1.38,7,7,0,0,0,2.49.48,5.51,5.51,0,0,0,.8-.07,2.5,2.5,0,0,0,.8-.21,1.81,1.81,0,0,0,.63-.45,1.07,1.07,0,0,0,.25-.77,1,1,0,0,0-.42-.86,2.61,2.61,0,0,0-1-.48c-.49-.13-1-.25-1.55-.36a12.12,12.12,0,0,1-1.53-.41,4.79,4.79,0,0,1-2.36-1.56,4,4,0,0,1-.72-2.45A3.79,3.79,0,0,1,79,91a7,7,0,0,1,4.2-1.24,12.5,12.5,0,0,1,2.51.25,10.93,10.93,0,0,1,2.24.69v3.23h-.31a7.07,7.07,0,0,0-1.93-1.13,5.94,5.94,0,0,0-2.33-.46,4.32,4.32,0,0,0-.84.07,3.2,3.2,0,0,0-.78.25,1.68,1.68,0,0,0-.57.46,1,1,0,0,0-.24.67,1.09,1.09,0,0,0,.38.86,4,4,0,0,0,1.49.57l1.37.31a13.63,13.63,0,0,1,1.42.41,4.87,4.87,0,0,1,2.19,1.43,3.68,3.68,0,0,1,.72,2.37,4,4,0,0,1-1.65,3.39A7.14,7.14,0,0,1,82.42,104.42Z"/>
        </g>
        <g>
          <line class="cls-5" x1="94.79" y1="103.28" x2="89.81" y2="103.27"/>
          <line class="cls-5" x1="94.8" y1="99.74" x2="89.82" y2="99.73"/>
          <line class="cls-5" x1="94.81" y1="96.21" x2="89.83" y2="96.19"/>
          <line class="cls-5" x1="94.82" y1="92.67" x2="89.84" y2="92.65"/>
          <line class="cls-5" x1="94.83" y1="89.13" x2="89.85" y2="89.12"/>
          <line class="cls-5" x1="94.84" y1="85.59" x2="89.86" y2="85.58"/>
          <line class="cls-5" x1="94.85" y1="82.06" x2="89.87" y2="82.04"/>
          <line class="cls-5" x1="94.86" y1="78.52" x2="89.88" y2="78.5"/>
          <line class="cls-5" x1="94.87" y1="74.98" x2="89.89" y2="74.97"/>
          <line class="cls-5" x1="94.88" y1="71.44" x2="89.9" y2="71.43"/>
          <line class="cls-5" x1="94.89" y1="67.91" x2="89.91" y2="67.89"/>
          <line class="cls-5" x1="94.9" y1="64.37" x2="89.92" y2="64.35"/>
          <line class="cls-5" x1="94.91" y1="60.83" x2="89.93" y2="60.82"/>
          <line class="cls-5" x1="94.92" y1="57.29" x2="89.94" y2="57.28"/>
          <line class="cls-5" x1="94.93" y1="53.76" x2="89.95" y2="53.74"/>
          <line class="cls-5" x1="94.94" y1="50.22" x2="89.96" y2="50.2"/>
          <line class="cls-5" x1="94.95" y1="46.68" x2="89.97" y2="46.67"/>
        </g>
        <g>
          <path class="cls-4" d="M54.88,86.71a2.58,2.58,0,0,1-.62,1.83,2.19,2.19,0,0,1-1.7.67,2.22,2.22,0,0,1-1.71-.67,2.59,2.59,0,0,1-.62-1.82,2.62,2.62,0,0,1,.62-1.83,2.51,2.51,0,0,1,3.4,0A2.62,2.62,0,0,1,54.88,86.71Zm-1.25,0a2.6,2.6,0,0,0-.09-.73,1.49,1.49,0,0,0-.23-.49,1,1,0,0,0-.35-.28,1,1,0,0,0-.41-.09.88.88,0,0,0-.75.37,1.86,1.86,0,0,0-.24.49,2.68,2.68,0,0,0-.09.74,3.45,3.45,0,0,0,.09.73,1.49,1.49,0,0,0,.24.49.9.9,0,0,0,.35.28,1,1,0,0,0,.41.09.86.86,0,0,0,.41-.1.93.93,0,0,0,.35-.28,1.48,1.48,0,0,0,.23-.49A2.16,2.16,0,0,0,53.63,86.71Z"/>
          <path class="cls-4" d="M59.7,89.1H58.54l-1.85-3.34V89.1h-1.1v-4.8h1.48l1.53,2.74V84.31h1.1Z"/>
          <path class="cls-4" d="M60.67,89.09V84.3H63.9v.92h-2v.84h1.88V87H61.86v1.21h2v.92Z"/>
          <path class="cls-4" d="M72.83,84.27l-1.2,4.8H70.31l-.78-3-.74,3H67.47l-1.22-4.79H67.5l.66,3.21.8-3.22h1.2l.76,3.21.69-3.21Z"/>
          <path class="cls-4" d="M72.92,89.07l1.61-4.8h1.31l1.63,4.79H76.23l-.3-1H74.42l-.3,1Zm2.74-1.86-.49-1.58-.49,1.59Z"/>
          <path class="cls-4" d="M81.92,84.25l-1.65,2.8v2h-1.2V87.11l-1.69-2.85h1.37L79.69,86l.9-1.71Z"/>
        </g>
      </g>
    </g>
  </g>
  <g id="Layer_16" data-name="Layer 16">
    <circle id="SVGID" class="cls-6" cx="88.28" cy="245.52" r="31.19"/>
  </g>
  <g id="Layer_17" data-name="Layer 17">
    <circle id="SVGID-2" data-name="SVGID" class="cls-6" cx="-907.47" cy="46.32" r="31.19"/>
  </g>
</svg>
