<svg xmlns="http://www.w3.org/2000/svg" viewBox="0 0 150 150">
  <defs>
    <style>
      .cls-1 {
        opacity: 0.6;
      }

      .cls-2 {
        fill: #0000dc;
      }

      .cls-3 {
        fill: none;
        stroke: #000;
        stroke-miterlimit: 10;
        stroke-width: 1.72px;
      }
    </style>
  </defs>
  <title>TopBar - Ideas</title>
  <g id="icons">
    <g class="cls-1">
      <rect class="cls-2" x="105.4" y="64.31" width="23.54" height="9.81" rx="4.75" transform="translate(47.66 186.2) rotate(-89.85)"/>
      <rect class="cls-2" x="21.07" y="64.09" width="23.54" height="9.81" rx="4.75" transform="translate(-36.25 101.65) rotate(-89.85)"/>
      <path class="cls-2" d="M110.35,52.52a22.56,22.56,0,0,0-22.5-22.61l-25.5-.06A22.56,22.56,0,0,0,39.74,52.34c0,.31,0,.61,0,.91s0,.3,0,.45l-.13,50.24a4.29,4.29,0,0,0,4.29,4.31l5.5,0,0,7.65a4.11,4.11,0,0,0,4.1,4.12h1.59a4.12,4.12,0,0,0,4.12-4.1l0-7.66,31.38.08,0,7.66a4.12,4.12,0,0,0,4.1,4.12h1.59a4.11,4.11,0,0,0,4.12-4.1l0-7.65h5.5a4.29,4.29,0,0,0,4.31-4.29l.13-50.24c0-.15,0-.3,0-.45S110.34,52.83,110.35,52.52Zm-9.8-3.22-.06,24A3.68,3.68,0,0,1,96.81,77L75.47,77l.08-31.38,21.34.06A3.66,3.66,0,0,1,100.55,49.3ZM56.45,36.37a.65.65,0,0,1,.65-.65l36,.09a.65.65,0,0,1,.65.65v2.62a.65.65,0,0,1-.65.65l-36-.09a.65.65,0,0,1-.65-.65Zm-6.9,12.8a3.68,3.68,0,0,1,3.68-3.66l21.34.06L74.49,77l-21.34-.06a3.66,3.66,0,0,1-3.66-3.67Zm-2.3,49c-3.91-3.38-3.91-6.75-3.9-10.12s0-3.37,5.89-3.35C59.05,84.75,61,94.87,61,94.87,62.93,101.61,51.16,101.58,47.25,98.2Zm35.53-1.62-15.69,0v-2l15.69,0Zm0-5.88-15.69,0v-2l15.69,0Zm19.59,7.64c-3.93,3.36-15.7,3.33-13.72-3.4,0,0,2-10.1,11.8-10.08,5.88,0,5.88,0,5.87,3.38S106.31,95,102.38,98.34Z"/>
    </g>
  </g>
  <g id="Layer_16" data-name="Layer 16">
    <circle id="SVGID" class="cls-3" cx="-421.72" cy="245.52" r="31.19"/>
  </g>
  <g id="Layer_17" data-name="Layer 17">
    <circle id="SVGID-2" data-name="SVGID" class="cls-3" cx="-1417.47" cy="46.32" r="31.19"/>
  </g>
</svg>
